<?xml version="1.0" encoding="UTF-8" standalone="no"?>
<svg
   viewBox="0 0 128 128"
   width="128"
   height="128"
   version="1.1"
   id="svg1"
   sodipodi:docname="flexplorer.svg"
   xml:space="preserve"
   inkscape:version="1.4 (e7c3feb100, 2024-10-09)"
   xmlns:inkscape="http://www.inkscape.org/namespaces/inkscape"
   xmlns:sodipodi="http://sodipodi.sourceforge.net/DTD/sodipodi-0.dtd"
   xmlns:xlink="http://www.w3.org/1999/xlink"
   xmlns="http://www.w3.org/2000/svg"
   xmlns:svg="http://www.w3.org/2000/svg"><defs
     id="defs1"><linearGradient
       id="linearGradient3235"><stop
         id="stop3237"
         style="stop-color:#ffffff"
         offset="0" /><stop
         id="stop3247"
         style="stop-color:#43ff38"
         offset=".26786" /><stop
         id="stop3239"
         style="stop-color:#ffffff;stop-opacity:0"
         offset="1" /></linearGradient><radialGradient
       id="radialGradient5217"
       xlink:href="#linearGradient3235"
       gradientUnits="userSpaceOnUse"
       cy="507.57999"
       cx="544.67999"
       gradientTransform="matrix(0.6462,0,0,0.37308,192.71,318.21)"
       r="7.6715002"
       inkscape:collect="always" /><linearGradient
       id="linearGradient3282"><stop
         id="stop3284"
         style="stop-color:#ffffff;stop-opacity:.29412"
         offset="0" /><stop
         id="stop3286"
         style="stop-color:#ffffff;stop-opacity:0"
         offset="1" /></linearGradient><clipPath
       clipPathUnits="userSpaceOnUse"
       id="clipPath210"><path
         d="M 64.09713,512 H 447.9029 c 22.2879,0 30.3701,-2.3206 38.5182,-6.6783 8.1482,-4.3577 14.5429,-10.7524 18.9006,-18.9006 C 509.6794,478.273 512,470.1908 512,447.9029 V 64.09713 C 512,41.80916 509.6794,33.72701 505.3217,25.57886 500.964,17.43071 494.5693,11.03599 486.4211,6.678318 478.273,2.32064 470.1908,0 447.9029,0 H 64.09713 C 41.80916,0 33.72701,2.32064 25.57886,6.678318 17.43071,11.03599 11.03599,17.43071 6.678318,25.57886 2.32064,33.72701 0,41.80916 0,64.09713 V 447.9029 c 0,22.2879 2.32064,30.3701 6.678318,38.5182 4.357672,8.1482 10.752392,14.5429 18.900542,18.9006 8.14815,4.3577 16.2303,6.6783 38.51827,6.6783 z"
         clip-rule="evenodd"
         id="path208" /></clipPath><clipPath
       clipPathUnits="userSpaceOnUse"
       id="clipPath216"><path
         d="M 0,0 H 512 V 512 H 0 Z"
         id="path214" /></clipPath><clipPath
       clipPathUnits="userSpaceOnUse"
       id="clipPath226"><path
         d="M 310.6214,362 424.7089,162.0939 H 310.6961 l -57.0086,99.4988 z"
         clip-rule="evenodd"
         id="path224" /></clipPath><clipPath
       clipPathUnits="userSpaceOnUse"
       id="clipPath232"><path
         d="M 0,0 H 512 V 512 H 0 Z"
         id="path230" /></clipPath><clipPath
       clipPathUnits="userSpaceOnUse"
       id="clipPath242"><path
         d="M 197.1006,362 83.51535,162.0939 H 197.1006 L 310.6214,362 Z"
         clip-rule="evenodd"
         id="path240" /></clipPath><clipPath
       clipPathUnits="userSpaceOnUse"
       id="clipPath248"><path
         d="M 0,0 H 512 V 512 H 0 Z"
         id="path246" /></clipPath><clipPath
       clipPathUnits="userSpaceOnUse"
       id="clipPath1"><path
         d="M 64.09713,512 H 447.9029 c 22.2879,0 30.3701,-2.3206 38.5182,-6.6783 8.1482,-4.3577 14.5429,-10.7524 18.9006,-18.9006 C 509.6794,478.273 512,470.1908 512,447.9029 V 64.09713 C 512,41.80916 509.6794,33.72701 505.3217,25.57886 500.964,17.43071 494.5693,11.03599 486.4211,6.678318 478.273,2.32064 470.1908,0 447.9029,0 H 64.09713 C 41.80916,0 33.72701,2.32064 25.57886,6.678318 17.43071,11.03599 11.03599,17.43071 6.678318,25.57886 2.32064,33.72701 0,41.80916 0,64.09713 V 447.9029 c 0,22.2879 2.32064,30.3701 6.678318,38.5182 4.357672,8.1482 10.752392,14.5429 18.900542,18.9006 8.14815,4.3577 16.2303,6.6783 38.51827,6.6783 z"
         clip-rule="evenodd"
         id="path1" /></clipPath><clipPath
       clipPathUnits="userSpaceOnUse"
       id="clipPath2"><path
         d="M 0,0 H 512 V 512 H 0 Z"
         id="path2" /></clipPath><clipPath
       clipPathUnits="userSpaceOnUse"
       id="clipPath3"><path
         d="M 310.6214,362 424.7089,162.0939 H 310.6961 l -57.0086,99.4988 z"
         clip-rule="evenodd"
         id="path3" /></clipPath><clipPath
       clipPathUnits="userSpaceOnUse"
       id="clipPath4"><path
         d="M 0,0 H 512 V 512 H 0 Z"
         id="path4" /></clipPath><clipPath
       clipPathUnits="userSpaceOnUse"
       id="clipPath5"><path
         d="M 197.1006,362 83.51535,162.0939 H 197.1006 L 310.6214,362 Z"
         clip-rule="evenodd"
         id="path5" /></clipPath><clipPath
       clipPathUnits="userSpaceOnUse"
       id="clipPath6"><path
         d="M 0,0 H 512 V 512 H 0 Z"
         id="path6" /></clipPath></defs><sodipodi:namedview
     id="namedview1"
     pagecolor="#ffffff"
     bordercolor="#666666"
     borderopacity="1.0"
     inkscape:showpageshadow="2"
     inkscape:pageopacity="0.0"
     inkscape:pagecheckerboard="0"
     inkscape:deskcolor="#d1d1d1"
     inkscape:zoom="4.890625"
     inkscape:cx="59.297125"
     inkscape:cy="114.70927"
     inkscape:window-width="2648"
     inkscape:window-height="1461"
     inkscape:window-x="0"
     inkscape:window-y="0"
     inkscape:window-maximized="1"
     inkscape:current-layer="svg1" /><text
     x="64"
     y="78"
     font-family="DejaVu Sans,sans-serif"
     font-size="64"
     font-weight="bold"
     text-anchor="middle"
     fill="white"
     id="text1">FX</text><g
     id="g418"
     transform="matrix(0.15986722,0,0,-0.1598673,45.872714,82.127308)"><g
       id="g340" /><g
       id="g348"><g
         id="g346"
         clip-path="url(#clipPath210)"><g
           id="g344"
           clip-path="url(#clipPath216)"><path
             d="M -1,513 H 513 V -1 H -1 Z"
             style="fill:#f6b102;fill-opacity:1;fill-rule:nonzero;stroke:none"
             id="path342" /></g></g></g><g
       id="g356"><g
         id="g354"
         clip-path="url(#clipPath226)"><g
           id="g352"
           clip-path="url(#clipPath232)"><path
             d="M 252.6875,363 H 425.7089 V 161.0939 H 252.6875 Z"
             style="fill:#fdebbf;fill-opacity:1;fill-rule:nonzero;stroke:none"
             id="path350" /></g></g></g><g
       id="g364"><g
         id="g362"
         clip-path="url(#clipPath242)"><g
           id="g360"
           clip-path="url(#clipPath248)"><path
             d="M 82.51535,363 H 311.6214 V 161.0939 H 82.51535 Z"
             style="fill:#ffffff;fill-opacity:1;fill-rule:nonzero;stroke:none"
             id="path358" /></g></g></g><g
       id="g366" /><g
       id="g374"><g
         id="g372"
         clip-path="url(#clipPath210)"><g
           id="g370"
           clip-path="url(#clipPath216)"><path
             d="M -1,513 H 513 V -1 H -1 Z"
             style="fill:#f6b102;fill-opacity:1;fill-rule:nonzero;stroke:none"
             id="path368" /></g></g></g><g
       id="g382"><g
         id="g380"
         clip-path="url(#clipPath226)"><g
           id="g378"
           clip-path="url(#clipPath232)"><path
             d="M 252.6875,363 H 425.7089 V 161.0939 H 252.6875 Z"
             style="fill:#fdebbf;fill-opacity:1;fill-rule:nonzero;stroke:none"
             id="path376" /></g></g></g><g
       id="g390"><g
         id="g388"
         clip-path="url(#clipPath242)"><g
           id="g386"
           clip-path="url(#clipPath248)"><path
             d="M 82.51535,363 H 311.6214 V 161.0939 H 82.51535 Z"
             style="fill:#ffffff;fill-opacity:1;fill-rule:nonzero;stroke:none"
             id="path384" /></g></g></g></g><g
     id="g1"
     transform="matrix(0.74113952,0,0,0.74113952,1.9473,31.320999)"><path
       d="m 48.304138,94.207595 -0.03577,32.413825 1.510972,0.002 0.03577,-32.413824 z"
       fill=""
       id="path1-3"
       style="stroke-width:0.129381" /><path
       d="m 38.419104,127.38127 h 21.487959 c 0.378075,0 0.718526,-0.1636 0.934322,-0.44894 0.215797,-0.28535 0.28031,-0.65759 0.17738,-1.02136 l -0.0077,-0.0257 L 50.02718,91.78098 c -0.193542,-0.679182 -0.708856,-0.734688 -0.864379,-0.734688 h -0.0012 c -0.154065,2.59e-4 -0.671366,0.05617 -0.869677,0.761712 L 37.315111,125.88527 c -0.110615,0.38934 -0.0461,0.76171 0.169695,1.04706 0.215796,0.28534 0.556249,0.44894 0.934323,0.44894 z M 59.41864,125.8703 H 38.906864 L 49.163349,94.028229 Z m -10.383921,-33.907966 0.713888,0.247722 c -0.0036,0.0102 -0.0082,0.02106 -0.01444,0.03259 z"
       fill=""
       id="path2-6"
       style="stroke-width:0.129381" /><path
       d="m 91.935127,126.77866 h 2.357069"
       fill="#fedebb"
       id="path3-7"
       style="stroke-width:0.129381" /><path
       d="m 91.935127,127.68516 h 2.356936 a 0.90650336,0.90650336 0 1 0 0,-1.813 h -2.356936 a 0.90650336,0.90650336 0 1 0 0,1.813 z"
       fill=""
       id="path4-5"
       style="stroke-width:0.129381" /><path
       d="m 81.793761,126.77866 h 4.999347"
       fill="#fedebb"
       id="path5-3"
       style="stroke-width:0.129381" /><path
       d="m 81.793761,127.68516 h 4.999347 a 0.90650336,0.90650336 0 1 0 0,-1.813 h -4.999347 a 0.90650336,0.90650336 0 1 0 0,1.813 z"
       fill=""
       id="path6-5"
       style="stroke-width:0.129381" /><path
       d="M 19.375115,126.77866 H 74.937692"
       fill="#fedebb"
       id="path7"
       style="stroke-width:0.129381" /><path
       d="m 19.375115,127.68516 h 55.562577 a 0.90650336,0.90650336 0 1 0 0,-1.813 H 19.375115 a 0.90650336,0.90650336 0 1 0 0,1.813 z"
       fill=""
       id="path8"
       style="stroke-width:0.129381" /><path
       d="M 9.7335632,126.77866 H 12.733251"
       fill="#fedebb"
       id="path9"
       style="stroke-width:0.129381" /><path
       d="m 9.7335632,127.68516 h 2.9996878 a 0.90650336,0.90650336 0 1 0 0,-1.813 H 9.7335632 a 0.90650336,0.90650336 0 1 0 0,1.813 z"
       fill=""
       id="path10"
       style="stroke-width:0.129381" /><path
       d="m 53.64897,89.788607 h -9.258443 v 7.851462 h 9.258443 z"
       fill="#fcd22e"
       id="path11"
       style="stroke-width:0.129381" /><path
       d="m 44.998705,98.742232 h 8.116141 c 0.64805,0 1.17542,-0.527502 1.17542,-1.175818 v -6.708761 c 0,-0.648316 -0.52737,-1.175686 -1.17542,-1.175686 h -8.116141 c -0.648316,0 -1.175951,0.52737 -1.175951,1.175686 v 6.708761 c -1.29e-4,0.648316 0.527502,1.175818 1.175951,1.175818 z m 8.082758,-1.208671 H 45.031425 V 90.89077 h 8.050038 z"
       fill=""
       id="path12"
       style="stroke-width:0.129381" /><path
       d="m 50.84375,85.361273 1.941506,5.227595 c 0.645402,1.737498 -0.239907,3.668007 -1.97714,4.312879 -1.736305,0.646197 -3.667741,-0.239906 -4.313143,-1.976344 l -1.941506,-5.227994 z"
       fill="#dfc93d"
       id="path16"
       style="stroke-width:0.129381" /><path
       d="m 48.162393,91.471394 c 0.247589,0.665008 0.987443,1.004268 1.653776,0.757738 0.664875,-0.247722 1.004002,-0.987443 0.757208,-1.653776 -0.24759,-0.6662 -0.987445,-1.005592 -1.653776,-0.757606 -0.666067,0.247723 -1.005328,0.987444 -0.757208,1.653644 z"
       fill=""
       id="path17"
       style="stroke-width:0.129381" /><path
       d="m 50.42938,85.517192 -5.471078,2.03238 0.617847,1.663313 5.471078,-2.032247 z"
       fill="#d1872c"
       id="path18"
       style="stroke-width:0.129381" /><path
       d="m 77.368414,90.6608 a 0.52895922,0.52895922 0 0 0 0.529092,-0.529489 v -0.52896 a 0.57764257,0.57764257 0 1 1 1.155285,0 v 0.52896 a 0.52895922,0.52895922 0 0 0 0.528826,0.529489 h 0.529358 a 0.57691402,0.57691402 0 0 1 0.577179,0.577443 0.57691402,0.57691402 0 0 1 -0.577179,0.577445 h -0.529358 a 0.52895922,0.52895922 0 0 0 -0.528826,0.529489 v 0.529357 a 0.57810627,0.57810627 0 0 1 -0.578106,0.577443 0.57731135,0.57731135 0 0 1 -0.577179,-0.577443 V 92.345177 A 0.52895922,0.52895922 0 0 0 77.368414,91.815688 H 76.83866 A 0.57717887,0.57717887 0 0 1 76.261217,91.238243 0.57731135,0.57731135 0 0 1 76.83866,90.6608 Z"
       fill="#2ba9fc"
       id="path19"
       style="stroke-width:0.129381" /><path
       d="m 41.686384,51.108214 a 0.50922094,0.50922094 0 0 0 0.50909,-0.508691 v -0.510148 a 0.55518857,0.55518857 0 0 1 0.555585,-0.554659 0.55412881,0.55412881 0 0 1 0.554526,0.554659 v 0.510148 a 0.50895597,0.50895597 0 0 0 0.509089,0.508691 h 0.508691 a 0.55505621,0.55505621 0 0 1 0.555718,0.554924 0.55558603,0.55558603 0 0 1 -0.555718,0.555719 h -0.508691 a 0.50869112,0.50869112 0 0 0 -0.509089,0.508558 v 0.508691 a 0.55452627,0.55452627 0 0 1 -0.554526,0.555188 0.55532106,0.55532106 0 0 1 -0.555585,-0.555188 v -0.508691 a 0.50882361,0.50882361 0 0 0 -0.50909,-0.508558 h -0.509088 a 0.5553215,0.5553215 0 1 1 0,-1.110643 z"
       fill="#fd5c1e"
       id="path20"
       style="stroke-width:0.129381" /><path
       d="M 20.863963,92.222243 68.70967,74.453293 62.609882,58.02787 14.762983,75.797881 Z"
       fill="#f5d72e"
       id="path26"
       style="stroke-width:0.129381" /><path
       d="M 64.728368,63.745478 62.4737,57.675893 14.62892,75.44789 l 2.254668,6.069586 z"
       fill="#ed8824"
       id="path27"
       style="stroke-width:0.129381" /><path
       d="m 69.232668,50.689869 -8.211916,3.049497 8.949783,24.101491 8.21205,-3.049497 z"
       fill="#f5d72e"
       id="path28"
       style="stroke-width:0.129381" /><path
       d="m 71.416861,56.583399 -2.254004,-6.070644 -8.21258,3.049363 2.254005,6.070646 z"
       fill="#ed8824"
       id="path29"
       style="stroke-width:0.129381" /><path
       d="M 7.2229614,93.785939 19.72007,89.145325 15.987418,79.093774 3.4901757,83.735316 Z"
       fill="#f5d72e"
       id="path30"
       style="stroke-width:0.129381" /><path
       d="M 2.76039,93.80475 6.688438,92.346369 4.3415708,86.028532 0.41352159,87.487177 Z"
       fill="#f5d72e"
       id="path31"
       style="stroke-width:0.129381" /><path
       d="m 4.4271475,96.190034 a 1.1709167,1.1709167 0 0 0 0.4113239,-0.07498 L 7.6944282,95.05528 c 0.6081776,-0.227321 0.9180277,-0.905576 0.691767,-1.51203 L 6.438199,88.297108 A 1.1670751,1.1670751 0 0 0 5.8261801,87.637665 1.1677374,1.1677374 0 0 0 4.9276255,87.603753 l -2.8574136,1.061361 a 1.1662802,1.1662802 0 0 0 -0.6595757,0.611887 1.1691947,1.1691947 0 0 0 -0.033913,0.898688 l 1.9487906,5.247599 a 1.1697245,1.1697245 0 0 0 0.6132106,0.659576 1.1703869,1.1703869 0 0 0 0.4884231,0.10717 z M 7.2417721,93.934042 4.4468859,94.971162 2.521675,89.786885 5.3165626,88.748837 Z"
       fill=""
       id="path32"
       style="stroke-width:0.129381" /><path
       d="M 17.282725,82.596059 15.902901,78.881555 3.4063211,83.523361 4.7860138,87.237865 Z"
       fill="#ed8824"
       id="path33"
       style="stroke-width:0.129381" /><path
       d="m 71.782483,80.77325 c 0.156051,0 0.3125,-0.02795 0.462989,-0.08385 l 7.140485,-2.65195 a 1.317298,1.317298 0 0 0 0.744226,-0.690839 1.3175628,1.3175628 0 0 0 0.03802,-1.014998 L 71.614774,53.300885 c -0.255273,-0.686071 -1.020429,-1.036724 -1.705705,-0.781716 l -7.141413,2.652083 c -0.685807,0.255008 -1.036326,1.020031 -0.781981,1.70544 l 8.553561,23.031121 a 1.3183577,1.3183577 0 0 0 0.69137,0.744226 1.323789,1.323789 0 0 0 0.551877,0.121211 z m 6.905349,-4.088075 -6.796193,2.523983 -8.425461,-22.685504 6.796192,-2.523849 z"
       fill=""
       id="path34"
       style="stroke-width:0.129381" /><path
       d="m 22.730091,95.295056 c 0.155522,0 0.311309,-0.02769 0.461531,-0.08333 l 5.17e-4,-1.29e-4 46.774939,-17.372198 a 1.3159732,1.3159732 0 0 0 0.744226,-0.690574 1.3159732,1.3159732 0 0 0 0.03749,-1.015793 L 65.046287,60.779574 a 1.3165031,1.3165031 0 0 0 -0.689382,-0.743829 1.3183577,1.3183577 0 0 0 -1.015792,-0.03842 l -46.77547,17.37233 c -0.684878,0.253948 -1.036326,1.018575 -0.783172,1.70438 l 5.704228,15.355053 a 1.3155758,1.3155758 0 0 0 0.690575,0.744092 1.322067,1.322067 0 0 0 0.552805,0.121875 z M 69.268569,76.48713 22.839248,93.73083 17.263914,78.722324 63.693765,61.478358 Z"
       fill=""
       id="path35"
       style="stroke-width:0.129381" /><path
       d="m 60.410587,81.335194 a 0.84689118,0.84689118 0 0 0 0.293293,-0.05551 l 9.687782,-3.597797 c 0.306673,-0.114322 0.759858,-0.466962 0.357013,-1.548725 L 65.046167,60.779703 c -0.398342,-1.079246 -0.970619,-1.053679 -1.277158,-0.940681 l -9.689903,3.598459 c -0.374498,0.142275 -0.735085,0.524058 -0.357673,1.546872 l 1.069443,2.879934 a 0.75575071,0.75575071 0 0 0 0.971149,0.445369 0.75535325,0.75535325 0 0 0 0.44537,-0.971149 l -1.004797,-2.706396 8.491564,-3.153487 5.574407,15.008506 -8.49183,3.153884 -2.853041,-7.683355 a 0.75548573,0.75548573 0 0 0 -1.41652,0.525781 l 2.917025,7.856098 c 0.289584,0.777874 0.661167,0.995656 0.986384,0.995656 z M 9.0282849,96.694882 a 1.324054,1.324054 0 0 0 0.4632537,-0.08425 L 20.916952,92.367035 a 1.314781,1.314781 0 0 0 0.743695,-0.689515 1.3194175,1.3194175 0 0 0 0.03842,-1.015925 L 18.363561,81.681741 C 18.108553,80.995669 17.343132,80.645149 16.658121,80.89976 L 5.2312498,85.143621 a 1.3175628,1.3175628 0 0 0 -0.7448871,0.692298 1.3165031,1.3165031 0 0 0 -0.035767,1.014864 l 3.3340453,8.977868 a 1.3203448,1.3203448 0 0 0 0.6932238,0.74555 1.3261735,1.3261735 0 0 0 0.5504201,0.120681 z M 20.218163,91.014764 9.1371761,95.130525 5.9305675,86.495628 17.011026,82.380396 Z m 28.943463,4.245318 a 4.7756024,4.7756024 0 0 0 1.667288,-0.302035 c 1.196881,-0.444045 2.149485,-1.327895 2.682154,-2.489141 0.532403,-1.161115 0.580755,-2.459999 0.136312,-3.657278 l -2.127626,-5.726616 -8.964223,3.329808 2.126434,5.725821 c 0.444708,1.197411 1.329088,2.149749 2.490334,2.682153 0.63507,0.290908 1.311205,0.437288 1.989327,0.437288 z m 1.468183,-10.232771 1.601185,4.31023 a 3.2496617,3.2496617 0 0 1 -0.09326,2.501461 3.248337,3.248337 0 0 1 -1.834599,1.702792 c -0.818675,0.304286 -1.706633,0.271699 -2.50133,-0.09247 -0.794168,-0.364164 -1.399033,-1.015792 -1.70332,-1.834731 l -1.600655,-4.3093 z"
       fill=""
       id="path36"
       style="stroke-width:0.129381" /></g></svg>
